<svg id="Layer_2" xmlns="http://www.w3.org/2000/svg" viewBox="0 0 513.5 244"><style>.st0{fill:#033651;} .st1{fill:#D03728;} .st2{fill:#256D99;} .st3{fill:#8BC042;} .st4{fill:#328BC4;} .st5{fill:#2C5EAA;} .st6{fill:#BD2227;} .st7{fill:#1E8441;} .st8{fill:#297BBB;} .st9{fill:#4E9E98;} .st10{fill:#6FA859;} .st11{fill:#894E53;} .st12{fill:#7B3636;}</style><path class="st0" d="M35.6 79.8L4.2 92.2V224h31.4z"/><path class="st1" d="M26.8 48h24.6v142.4H26.8z"/><path class="st2" d="M42.5 117.9h31.6v94.9H42.5z"/><path class="st3" d="M92.9 181H58.3V3.1l34.6 15.1z"/><path class="st4" d="M83.2 93.2H108v146.9H83.2z"/><path class="st5" d="M101.4 124.8h24.8v96.9h-24.8z"/><path d="M154.2 58.5v3.6c-2.5-1.3-5.3-2.4-8.4-3.4-2-.6-4.5-1-7.6-1-4.5-.1-8.2.9-11 3-2.6 1.9-3.9 5.2-3.9 9.8 0 2.8 1 5.1 2.9 6.8 2.1 1.8 5.2 3.2 9.4 4.3l4.6 1.2c4.1 1.1 7.3 2.4 9.5 3.9 4.2 2.8 6.3 6.4 6.3 10.7 0 6.2-1.8 10.6-5.5 13-4 2.6-8.1 3.9-12.3 3.9-4.4 0-8.3-.6-11.8-1.8-2.2-.9-4.5-2.1-6.9-3.6V105c3.6 2.1 6.1 3.5 7.5 4.1 3.2 1.3 6.2 2 8.9 2 4.7 0 8.6-1 11.7-3.1 2.9-2 4.4-5.4 4.4-10.3 0-2.9-.9-5.1-2.7-6.8-2.6-2.4-6-4.1-10.1-5.1l-4.6-1.1c-3.7-.9-6.8-2.2-9.4-3.8-3.9-2.5-5.9-5.8-5.9-10.1 0-5.3 1.6-9.4 4.8-12.2 3-2.6 7.5-4 13.6-4 3.6 0 6.3.3 8.2.9 5 1.6 7.7 2.6 8.3 3zM175.1 55.6h3.8v24.8l26.3-24.8h5.1l-28.6 26.9 30.5 30.6h-5l-28.3-28.4v28.4h-3.8V55.6z"/><path class="st6" d="M214 55.6h4.5l17.9 39.9 17.8-39.9h4.4l-20.3 43.5V113h-3.9V99.1L214 55.6z"/><path d="M268.6 55.6h3.9v54.3h28v3.2h-31.8V55.6zM311.5 55.6h4v57.5h-4V55.6zM333.8 55.6h5.7l27.9 52.6V55.6h3.9v57.5h-5.5l-28-52.9v52.9h-3.9V55.6zM391.4 55.6h32.5v3.2h-28.6v22.1h27.4V84h-27.4v26h29.3v3.1h-33.2V55.6zM156.1 127h5.4l16 42.7 16.1-42.7h5.3v57.6H195V134l-14.8 39.5h-5.3L160 134v50.6h-3.9V127zM297 157.5c1.6.6 3.1 1.8 4.6 3.6 1.1 1.3 2.6 3.9 4.5 7.6l8.1 15.7h-4.1l-8.2-15.8c-2.1-4.1-4.2-6.9-6.1-8.2-2-1.3-4.7-2-8.1-2h-10.4v26h-3.9V127H289c5.9 0 10.3 1.4 13.2 4.1 2.9 2.8 4.4 6.9 4.4 12.5 0 3.6-.8 6.6-2.3 9-1.6 2.3-4 4-7.3 4.9zm-19.9-27.4v25.2h12.7c4.1 0 7.2-1.1 9.3-3.2 2.1-2.1 3.2-5.3 3.2-9.4 0-4.1-1.1-7.3-3.2-9.4-2.1-2.1-5.2-3.2-9.3-3.2h-12.7zM330.7 127h3.8v24.8l26.4-24.8h5.1l-28.6 27 30.5 30.6h-5.1l-28.3-28.4v28.4h-3.8V127zM377.1 127h32.5v3.2H381v22.1h27.4v3.1H381v26h29.3v3.1h-33.2V127zM417.8 127h44.8v3.2h-20.4v54.4h-3.9v-54.4h-20.4V127zM505.1 129.8v3.6c-2.5-1.3-5.3-2.4-8.4-3.4-2-.6-4.5-1-7.6-1-4.5-.1-8.2.9-11 3-2.6 1.9-3.9 5.2-3.9 9.8 0 2.9 1 5.1 2.9 6.8 2.1 1.8 5.2 3.2 9.4 4.3l4.6 1.2c4.1 1.1 7.3 2.4 9.5 3.9 4.2 2.9 6.3 6.4 6.3 10.8 0 6.2-1.8 10.6-5.5 13-4 2.6-8.1 3.9-12.3 3.9-4.4 0-8.3-.6-11.8-1.8-2.2-.9-4.5-2.1-6.9-3.6v-3.8c3.6 2.1 6.1 3.5 7.6 4.1 3.2 1.3 6.2 2 8.9 2 4.7 0 8.6-1 11.7-3.1 2.9-2 4.4-5.4 4.4-10.3 0-2.9-.9-5.1-2.7-6.8-2.6-2.4-6-4.1-10.1-5.1l-4.6-1.1c-3.7-.9-6.9-2.2-9.4-3.8-3.9-2.5-5.9-5.8-5.9-10.1 0-5.3 1.6-9.4 4.8-12.3 3-2.6 7.5-4 13.6-4 3.6 0 6.3.3 8.2.9 4.9 1.5 7.6 2.5 8.2 2.9z"/><path class="st7" d="M261.9 184.5l-22-57.5h-5l-22 57.5h4.1l5.3-14.2 2.7-7.1 12.3-32.4 11.2 29.9 3.8 9.9 5.2 13.9z"/><path class="st8" d="M101.4 124.8h6.7v96.9h-6.7z"/><path class="st9" d="M83.2 93.2h9.6V181h-9.6z"/><path class="st10" d="M58.3 117.9h15.8V181H58.3z"/><path class="st11" d="M42.5 117.9h9v72.5h-9z"/><path class="st12" d="M35.6 79.8l-8.8 3.5v107.1h8.8z"/></svg>