<?xml version="1.0" standalone="no"?>
<!DOCTYPE svg PUBLIC "-//W3C//DTD SVG 20010904//EN"
 "http://www.w3.org/TR/2001/REC-SVG-20010904/DTD/svg10.dtd">
<svg version="1.0" xmlns="http://www.w3.org/2000/svg"
 width="260.000000pt" height="260.000000pt" viewBox="0 0 260.000000 260.000000"
 preserveAspectRatio="xMidYMid meet">
<metadata>
Created by potrace 1.11, written by Peter Selinger 2001-2013
</metadata>
<g transform="translate(0.000000,260.000000) scale(0.100000,-0.100000)"
fill="#000000" stroke="none">
<path d="M2574 2427 c-13 -14 -156 -151 -408 -392 -275 -262 -282 -268 -481
-460 -211 -202 -225 -215 -236 -215 -4 0 -50 54 -101 121 -190 247 -290 376
-341 442 -28 38 -62 80 -74 95 l-22 25 -455 -453 -456 -454 0 -155 0 -155 343
341 c492 491 565 563 570 563 3 0 40 -46 83 -102 43 -57 81 -105 84 -108 3 -3
25 -32 50 -65 25 -33 47 -62 50 -65 3 -3 41 -52 84 -110 44 -58 93 -121 108
-140 33 -41 38 -47 59 -78 l16 -22 59 56 c57 53 336 320 514 491 47 44 108
102 135 128 28 26 135 129 238 229 104 99 193 183 198 184 11 4 12 312 2 312
-5 -1 -13 -6 -19 -13z"/>
<path d="M2553 1798 c-17 -18 -70 -71 -120 -118 -49 -47 -178 -170 -288 -275
-109 -104 -218 -208 -241 -230 -57 -54 -391 -373 -426 -407 l-28 -27 -53 67
c-29 37 -84 108 -122 157 -169 221 -339 441 -351 454 -10 11 -89 -63 -468
-439 l-456 -453 0 -189 0 -188 1300 0 1300 0 0 840 c0 462 -4 840 -8 840 -5 0
-22 -15 -39 -32z"/>
</g>
</svg>
