<svg id="Isolation_Mode" xmlns="http://www.w3.org/2000/svg" viewBox="0 0 35.5 19.2"><style>.st0{fill:#C1F954;}</style><path class="st0" d="M15.1 18.5c0-1.5 1.2-2.7 2.6-2.7 1.5 0 2.6 1.2 2.6 2.7 0 .2 0 .4-.1.6 5.1-.1 10.1-.3 15.2-.8v-1.9c-1.2-.1-2.5-.2-3.7-.4-.1-.6-.2-1.1-.3-1.7 1.1-.7 2.1-1.5 3.2-2.2-.3-.8-.6-1.5-1-2.3-1.2.3-2.5.7-3.7 1-.3-.5-.6-1-1-1.4.7-1.1 1.4-2.2 2.2-3.2-.5-.6-1.1-1.2-1.7-1.8-1 .8-2.1 1.5-3.1 2.3-.5-.4-.9-.7-1.4-1 .3-1.3.5-2.6.8-3.8-.8-.3-1.5-.7-2.3-1-.7 1.1-1.3 2.2-2 3.3-.6-.1-1.1-.3-1.7-.3-.3-1.3-.5-2.6-.7-3.9h-2.5l-.6 3.9c-.6.1-1.1.2-1.7.3-.7-1.1-1.3-2.2-2-3.3-.8.3-1.5.7-2.3 1 .3 1.3.5 2.6.8 3.8-.5.3-1 .6-1.4 1-1-.8-2.1-1.5-3.1-2.3-.7.6-1.3 1.2-1.9 1.8.7 1.1 1.4 2.2 2.2 3.2-.4.5-.7.9-1 1.4-1.2-.3-2.5-.6-3.7-1-.3.8-.6 1.5-1 2.3 1.1.8 2.2 1.5 3.2 2.3-.1.6-.3 1.1-.3 1.7-1.2.1-2.5.3-3.7.4v1.9c5 .5 10.1.7 15.2.8-.1-.2-.1-.4-.1-.7zm10.6-7.4c1.5 1.8 2.5 4 2.7 6.5-1.3.1-2.6.1-3.8.2-.2-1.5-.8-2.8-1.6-3.8.9-1 1.8-2 2.7-2.9zm-7.3-3.7c2.4.1 4.7 1.1 6.4 2.7-.9 1-1.8 1.9-2.7 2.9-1-.9-2.3-1.4-3.7-1.6v-4zM11 17.8c-1.3 0-2.6-.1-3.9-.2.1-2.5 1.1-4.8 2.7-6.5.9 1 1.8 1.9 2.7 2.9-.9 1-1.4 2.3-1.5 3.8zm-.3-7.6c1.7-1.6 4-2.6 6.4-2.7v4c-1.4.1-2.7.7-3.7 1.6-.9-1-1.8-2-2.7-2.9z"/></svg>