<?xml version="1.0" encoding="utf-8"?>
<!-- Generator: Adobe Illustrator 19.2.1, SVG Export Plug-In . SVG Version: 6.00 Build 0)  -->
<svg version="1.1" id="Layer_5_copy" xmlns="http://www.w3.org/2000/svg" xmlns:xlink="http://www.w3.org/1999/xlink" x="0px"
	 y="0px" viewBox="0 0 983.6 222" style="enable-background:new 0 0 983.6 222;" xml:space="preserve">
<style type="text/css">
	.st0{fill:#FFFFFF;}
	.st1{fill:none;}
	.st2{fill:#4AB86D;}
</style>
<g>
	<path class="st0" d="M392.9,91.1c5.8,1.2,10.2,3.2,13.1,6c4,3.8,6,8.5,6,14c0,4.2-1.3,8.3-4,12.1c-2.7,3.8-6.3,6.6-10.9,8.4
		c-4.6,1.8-11.7,2.6-21.2,2.6H336v-2.3h3.2c3.6,0,6.1-1.1,7.7-3.3c0.9-1.4,1.4-4.5,1.4-9.3V64.7c0-5.3-0.6-8.6-1.8-9.9
		c-1.7-1.9-4.1-2.8-7.3-2.8H336v-2.3h36.5c6.8,0,12.3,0.5,16.4,1.5c6.2,1.5,11,4.1,14.3,7.9s4.9,8.2,4.9,13.1c0,4.2-1.3,8-3.9,11.4
		C401.7,87.1,397.9,89.5,392.9,91.1z M360.2,87.7c1.5,0.3,3.2,0.5,5.2,0.7c2,0.2,4.2,0.2,6.5,0.2c6,0,10.6-0.7,13.7-2
		c3.1-1.3,5.4-3.3,7-6c1.6-2.7,2.4-5.7,2.4-8.9c0-4.9-2-9.1-6.1-12.6c-4.1-3.5-9.9-5.3-17.6-5.3c-4.2,0-7.9,0.5-11.2,1.4V87.7z
		 M360.2,128.1c4.8,1.1,9.5,1.7,14.2,1.7c7.5,0,13.3-1.7,17.2-5.1c3.9-3.4,5.9-7.6,5.9-12.6c0-3.3-0.9-6.5-2.7-9.5
		c-1.8-3-4.7-5.4-8.7-7.2c-4-1.8-9-2.6-14.9-2.6c-2.6,0-4.8,0.1-6.6,0.2c-1.8,0.1-3.3,0.3-4.4,0.5V128.1z"/>
	<path class="st0" d="M449.5,75.5v45.8c0,3.6,0.3,6,0.8,7.2c0.5,1.2,1.3,2,2.3,2.6c1,0.6,2.9,0.9,5.6,0.9v2.2h-27.7V132
		c2.8,0,4.7-0.3,5.6-0.8c1-0.5,1.7-1.4,2.2-2.7c0.5-1.2,0.8-3.6,0.8-7.2v-22c0-6.2-0.2-10.2-0.5-12c-0.3-1.3-0.8-2.3-1.4-2.8
		c-0.6-0.5-1.5-0.8-2.6-0.8c-1.1,0-2.5,0.3-4.2,0.9l-0.9-2.2l17.2-7H449.5z M444.3,45.6c1.8,0,3.2,0.6,4.5,1.9
		c1.2,1.2,1.8,2.7,1.8,4.5c0,1.7-0.6,3.2-1.8,4.5c-1.2,1.3-2.7,1.9-4.5,1.9s-3.3-0.6-4.5-1.9c-1.2-1.3-1.9-2.7-1.9-4.5
		c0-1.8,0.6-3.3,1.8-4.5C441,46.2,442.5,45.6,444.3,45.6z"/>
	<path class="st0" d="M488.7,87.6c6.7-8.1,13.1-12.1,19.2-12.1c3.1,0,5.8,0.8,8,2.3c2.2,1.5,4,4.1,5.4,7.7c0.9,2.5,1.3,6.4,1.3,11.5
		v24.3c0,3.6,0.3,6.1,0.9,7.4c0.5,1,1.2,1.8,2.2,2.4c1,0.6,2.9,0.9,5.6,0.9v2.2h-28.3V132h1.2c2.6,0,4.5-0.4,5.5-1.2s1.8-2,2.2-3.6
		c0.2-0.6,0.3-2.6,0.3-5.9V98c0-5.2-0.7-8.9-2.1-11.3c-1.4-2.3-3.7-3.5-6.9-3.5c-5,0-9.9,2.7-14.8,8.1v30c0,3.9,0.2,6.3,0.7,7.2
		c0.6,1.2,1.4,2.1,2.4,2.6c1,0.6,3.1,0.9,6.2,0.9v2.2h-28.2V132h1.2c2.9,0,4.9-0.7,5.9-2.2c1-1.5,1.5-4.3,1.5-8.5v-21.1
		c0-6.9-0.2-11-0.5-12.5c-0.3-1.5-0.8-2.5-1.4-3.1c-0.6-0.5-1.5-0.8-2.6-0.8c-1.2,0-2.6,0.3-4.2,0.9l-0.9-2.2l17.2-7h2.6V87.6z"/>
	<path class="st0" d="M575,126.1c-5.8,4.5-9.5,7.1-11,7.8c-2.3,1-4.7,1.5-7.2,1.5c-3.9,0-7.2-1.3-9.7-4c-2.6-2.7-3.8-6.2-3.8-10.7
		c0-2.8,0.6-5.2,1.9-7.2c1.7-2.8,4.7-5.5,8.9-8c4.2-2.5,11.2-5.5,21-9.1v-2.2c0-5.7-0.9-9.6-2.7-11.7c-1.8-2.1-4.4-3.2-7.9-3.2
		c-2.6,0-4.6,0.7-6.2,2.1c-1.6,1.4-2.4,3.1-2.4,4.9l0.2,3.6c0,1.9-0.5,3.4-1.5,4.4c-1,1-2.2,1.5-3.8,1.5c-1.5,0-2.8-0.5-3.8-1.6
		c-1-1.1-1.5-2.6-1.5-4.4c0-3.6,1.8-6.8,5.5-9.8c3.7-3,8.8-4.5,15.4-4.5c5.1,0,9.2,0.9,12.5,2.6c2.4,1.3,4.2,3.3,5.4,6
		c0.7,1.8,1.1,5.5,1.1,11v19.4c0,5.4,0.1,8.7,0.3,10c0.2,1.2,0.6,2.1,1,2.5c0.5,0.4,1,0.6,1.7,0.6c0.7,0,1.2-0.2,1.7-0.5
		c0.9-0.5,2.6-2,5.1-4.5v3.5c-4.7,6.2-9.2,9.3-13.4,9.3c-2,0-3.6-0.7-4.8-2.1C575.7,131.9,575.1,129.5,575,126.1z M575,122v-21.8
		c-6.2,2.5-10.3,4.3-12.2,5.3c-3.3,1.8-5.6,3.7-7,5.7c-1.4,2-2.1,4.2-2.1,6.5c0,3,0.9,5.5,2.7,7.5c1.8,2,3.8,3,6.2,3
		C565.7,128.2,569.9,126.1,575,122z"/>
	<path class="st0" d="M622.9,75.5v12.9c4.8-8.6,9.7-12.9,14.7-12.9c2.3,0,4.2,0.7,5.7,2.1c1.5,1.4,2.2,3,2.2,4.8
		c0,1.7-0.5,3-1.6,4.1c-1.1,1.1-2.3,1.7-3.8,1.7c-1.5,0-3.1-0.7-5-2.1c-1.8-1.4-3.1-2.1-3.9-2.1c-0.8,0-1.6,0.4-2.5,1.2
		c-1.9,1.7-3.8,4.5-5.8,8.4v27.4c0,3.1,0.4,5.5,1.2,7.1c0.5,1.1,1.5,2.1,2.8,2.8c1.4,0.7,3.3,1.1,5.9,1.1v2.2h-29.2V132
		c2.9,0,5-0.5,6.4-1.4c1-0.7,1.8-1.7,2.2-3.2c0.2-0.7,0.3-2.7,0.3-6V99.3c0-6.6-0.1-10.6-0.4-11.8c-0.3-1.3-0.7-2.2-1.5-2.8
		c-0.7-0.6-1.6-0.9-2.7-0.9c-1.3,0-2.7,0.3-4.3,0.9l-0.7-2.2l17.3-7H622.9z"/>
	<path class="st0" d="M652.3,77.2h26.6v2.2h-1.3c-1.9,0-3.3,0.4-4.2,1.2c-0.9,0.8-1.4,1.8-1.4,3c0,1.7,0.7,3.9,2.1,6.7l13.9,28.8
		l12.8-31.5c0.7-1.7,1.1-3.4,1.1-5.1c0-0.7-0.2-1.3-0.5-1.6c-0.3-0.5-0.8-0.8-1.5-1.1c-0.7-0.3-2-0.4-3.7-0.4v-2.2h18.6v2.2
		c-1.5,0.2-2.7,0.6-3.6,1c-0.8,0.5-1.8,1.4-2.8,2.8c-0.4,0.6-1.1,2.1-2.1,4.7L683,145c-2.3,5.5-5.2,9.7-8.9,12.5
		c-3.6,2.8-7.1,4.3-10.5,4.3c-2.4,0-4.4-0.7-6-2.1c-1.6-1.4-2.4-3-2.4-4.8c0-1.8,0.6-3.2,1.7-4.2c1.2-1.1,2.7-1.6,4.7-1.6
		c1.4,0,3.3,0.4,5.7,1.3c1.7,0.7,2.7,1,3.1,1c1.2,0,2.6-0.6,4.1-1.9c1.5-1.3,3-3.8,4.5-7.5l4.1-9.9l-20.5-43c-0.6-1.3-1.6-2.9-3-4.8
		c-1-1.4-1.9-2.4-2.6-2.9c-0.9-0.7-2.5-1.3-4.6-1.8V77.2z"/>
	<path class="st0" d="M799,47.8l1.9,28.8H799c-2.6-8.6-6.3-14.8-11-18.6c-4.8-3.8-10.5-5.7-17.2-5.7c-5.6,0-10.7,1.4-15.2,4.3
		c-4.5,2.9-8.1,7.4-10.7,13.6c-2.6,6.2-3.9,14-3.9,23.3c0,7.6,1.2,14.3,3.7,19.9c2.5,5.6,6.1,9.9,11.1,12.9c4.9,3,10.5,4.5,16.8,4.5
		c5.5,0,10.4-1.2,14.6-3.5c4.2-2.3,8.8-7,13.9-14l1.9,1.2c-4.2,7.5-9.2,13-14.8,16.5c-5.7,3.5-12.3,5.2-20.1,5.2
		c-14,0-24.8-5.2-32.5-15.6c-5.7-7.7-8.6-16.9-8.6-27.3c0-8.4,1.9-16.2,5.7-23.2c3.8-7.1,9-12.6,15.6-16.5
		c6.6-3.9,13.9-5.8,21.7-5.8c6.1,0,12.1,1.5,18,4.5c1.8,0.9,3,1.4,3.8,1.4c1.1,0,2.1-0.4,2.9-1.2c1.1-1.1,1.8-2.7,2.2-4.7H799z"/>
	<path class="st0" d="M866.4,134.3l-32.7-71.1v56.5c0,5.2,0.6,8.4,1.7,9.7c1.5,1.8,3.9,2.6,7.3,2.6h2.9v2.3h-29.4v-2.3h3
		c3.6,0,6.1-1.1,7.6-3.3c0.9-1.3,1.4-4.3,1.4-9.1V64.4c0-3.8-0.4-6.5-1.2-8.1c-0.6-1.2-1.6-2.2-3.2-3c-1.6-0.8-4.1-1.2-7.5-1.2v-2.3
		h23.9l30.7,66.2L901,49.7h23.9v2.3h-2.9c-3.6,0-6.2,1.1-7.7,3.3c-0.9,1.3-1.3,4.4-1.3,9.1v55.2c0,5.2,0.6,8.4,1.7,9.7
		c1.5,1.8,4,2.6,7.3,2.6h2.9v2.3H889v-2.3h2.9c3.6,0,6.1-1.1,7.6-3.3c0.9-1.3,1.4-4.3,1.4-9.1V63.1l-32.6,71.1H866.4z"/>
</g>
<g>
	<path class="st0" d="M57.4,213.2V189h20.7c1.9,0,3.3,0.4,4.1,1.1c0.9,0.7,1.3,1.9,1.3,3.6v2.9c0,1.2-0.4,2.1-1.1,2.8
		c-0.7,0.7-1.7,1.1-3.1,1.3c1.4,0.2,2.5,0.7,3.2,1.5c0.8,0.8,1.1,1.9,1.1,3.1v3.1c0,1.6-0.6,2.8-1.8,3.6c-1.2,0.8-2.9,1.2-5.3,1.2
		H57.4z M75.8,193H63v5.7h12.8c1,0,1.6-0.1,2-0.4c0.4-0.3,0.6-0.7,0.6-1.3v-2.3c0-0.6-0.2-1.1-0.6-1.3C77.4,193.1,76.7,193,75.8,193
		z M75.8,202.7H63v6.1h12.8c1.1,0,1.8-0.2,2.2-0.5c0.4-0.3,0.6-0.9,0.6-1.7v-1.8c0-0.8-0.2-1.4-0.6-1.7
		C77.5,202.8,76.8,202.7,75.8,202.7z"/>
	<path class="st0" d="M102.6,213.2V189h5.6v24.1H102.6z"/>
	<path class="st0" d="M128.5,213.2V189h3.8l17,14.2c0.6,0.5,1.1,0.9,1.5,1.3c0.4,0.4,0.8,0.8,1.2,1.3c-0.1-1.4-0.2-2.3-0.2-2.9
		c0-0.6,0-1,0-1.3V189h5v24.1H153l-17.7-14.9c-0.4-0.4-0.8-0.7-1.1-1c-0.3-0.3-0.6-0.6-0.9-0.9c0.1,0.7,0.1,1.4,0.2,2.1
		c0,0.7,0.1,1.2,0.1,1.7v13H128.5z"/>
	<path class="st0" d="M172.5,213.2l13.6-24.1h5.4l13.8,24.1h-6.3l-2.9-5.3h-15.3l-2.8,5.3H172.5z M183.3,203.5h10.6l-5.2-9.8
		L183.3,203.5z"/>
	<path class="st0" d="M221.2,213.2V189h20.6c1.9,0,3.3,0.4,4.2,1.1c0.9,0.7,1.3,1.9,1.3,3.6v5.7c0,1.6-0.4,2.8-1.3,3.6
		c-0.9,0.7-2.2,1.1-4.2,1.1h-3.1l11.1,9.1h-8.1l-9.7-9.1h-5.3v9.1H221.2z M239.3,193.2h-12.6v6.7h12.6c1,0,1.6-0.1,2-0.4
		c0.4-0.3,0.5-0.8,0.5-1.5v-2.9c0-0.7-0.2-1.2-0.5-1.5C241,193.4,240.3,193.2,239.3,193.2z"/>
	<path class="st0" d="M272.6,213.2v-10.8L260.1,189h7.5l8.3,9.3l8.3-9.3h6.6l-12.5,13.2v10.9H272.6z"/>
	<path class="st0" d="M351.6,193.4h-15.1v15.3h15.1v-5.2l5.6,1.2v2.9c0,2.2-0.4,3.7-1.2,4.5c-0.8,0.8-2.4,1.2-4.7,1.2h-14.4
		c-2.3,0-3.9-0.4-4.7-1.2c-0.8-0.8-1.2-2.3-1.2-4.5v-12.7c0-2.2,0.4-3.7,1.2-4.5c0.8-0.8,2.4-1.2,4.7-1.2h14.4
		c2.3,0,3.9,0.4,4.7,1.2c0.8,0.8,1.2,2.3,1.2,4.5v2.3l-5.6,0.9V193.4z"/>
	<path class="st0" d="M371.4,213.2L385,189h5.4l13.8,24.1h-6.3l-2.9-5.3h-15.3l-2.8,5.3H371.4z M382.2,203.5h10.6l-5.2-9.8
		L382.2,203.5z"/>
	<path class="st0" d="M420,213.2V189h20.6c1.9,0,3.3,0.4,4.2,1.1c0.9,0.7,1.3,1.9,1.3,3.6v5.4c0,1.6-0.4,2.8-1.3,3.5
		c-0.9,0.7-2.2,1.1-4.2,1.1h-15.1v9.4H420z M438.2,193.2h-12.6v6.4h12.6c1,0,1.6-0.1,2-0.4c0.4-0.3,0.5-0.8,0.5-1.5v-2.6
		c0-0.7-0.2-1.2-0.5-1.5C439.8,193.4,439.1,193.2,438.2,193.2z"/>
	<path class="st0" d="M462.8,213.2V189h5.6v24.1H462.8z"/>
	<path class="st0" d="M499.9,193.4v19.8h-5.6v-19.8h-11.1V189h27.8v4.3H499.9z"/>
	<path class="st0" d="M518.2,213.2l13.6-24.1h5.4l13.8,24.1h-6.3l-2.9-5.3h-15.3l-2.8,5.3H518.2z M529,203.5h10.6l-5.2-9.8
		L529,203.5z"/>
	<path class="st0" d="M566.8,213.2V189h5.6v19.6h18.1v4.5H566.8z"/>
	<path class="st0" d="M632.8,213.2V189h4.5l11.4,14.6l11.1-14.6h4.5v24.1h-5.2v-14.9c0-0.3,0-0.7,0.1-1.1c0-0.4,0.1-0.9,0.1-1.5
		c-0.3,0.6-0.6,1.1-0.8,1.5c-0.2,0.4-0.4,0.7-0.6,1l-9.1,12h-1.1l-9.1-12.1c-0.3-0.5-0.6-0.9-0.9-1.3c-0.2-0.4-0.4-0.8-0.6-1.2
		c0,0.5,0.1,1,0.1,1.4c0,0.4,0,0.8,0,1.2v14.9H632.8z"/>
	<path class="st0" d="M679.5,213.2l13.6-24.1h5.4l13.8,24.1h-6.3l-2.9-5.3h-15.3l-2.8,5.3H679.5z M690.3,203.5h10.6l-5.2-9.8
		L690.3,203.5z"/>
	<path class="st0" d="M728.2,213.2V189h20.6c1.9,0,3.3,0.4,4.2,1.1c0.9,0.7,1.3,1.9,1.3,3.6v5.7c0,1.6-0.4,2.8-1.3,3.6
		c-0.9,0.7-2.2,1.1-4.2,1.1h-3.1l11.1,9.1h-8l-9.7-9.1h-5.3v9.1H728.2z M746.3,193.2h-12.6v6.7h12.6c1,0,1.6-0.1,2-0.4
		c0.4-0.3,0.5-0.8,0.5-1.5v-2.9c0-0.7-0.2-1.2-0.5-1.5C748,193.4,747.3,193.2,746.3,193.2z"/>
	<path class="st0" d="M773.7,213.2V189h5.7v10.1l13.4-10.1h8.1l-16,11.4l17.9,12.7h-9l-14.4-10.6v10.6H773.7z"/>
	<path class="st0" d="M818.8,213.2V189h24.7v4.1h-19.1v5.4h11.1v4.1h-11.1v6h19.3v4.5H818.8z"/>
	<path class="st0" d="M873.3,193.4v19.8h-5.6v-19.8h-11.1V189h27.8v4.3H873.3z"/>
	<path class="st0" d="M920.2,193.3h-15.8v5.2h15c2.4,0,3.9,0.4,4.8,1.2c0.8,0.8,1.2,2.3,1.2,4.5v3.3c0,2.2-0.4,3.7-1.2,4.5
		c-0.8,0.8-2.4,1.2-4.8,1.2h-14.9c-2.4,0-3.9-0.4-4.8-1.2c-0.8-0.8-1.2-2.3-1.2-4.5v-0.7l4.9-1v2.9h17v-5.5h-15
		c-2.3,0-3.9-0.4-4.7-1.2c-0.8-0.8-1.2-2.3-1.2-4.5v-2.7c0-2.2,0.4-3.7,1.2-4.5c0.8-0.8,2.4-1.2,4.7-1.2h13.7c2.3,0,3.8,0.4,4.7,1.2
		c0.9,0.8,1.3,2.2,1.3,4.1v0.5l-4.9,1.2V193.3z"/>
</g>
<g>
	<path class="st1" d="M116.6,118.1c4.2-1.8,9.7-3.9,14.4-5.6c-0.4-1.6-2.5-9.3-1-15.8c1.7-7.3,4.4-14.7,8.5-20.4
		c3.1-4.2,3.7-5,3.8-5.1c-0.2,0-2-0.5-8.3,2.8c-6.5,3.5-14.2,9.2-17,12.1c-2.8,2.9-11.1,12-16.1,19.6c-5,7.7-14,21.9-16,25.4
		c-1.8,3.2-4.7,8.7-5.1,9.5c1.9-1.6,4.6-3.8,8.4-6.5C98.5,126.8,108.2,121.7,116.6,118.1z"/>
	<path class="st1" d="M141.3,109c2.3-0.6,7.2-2,13.6-2.9c8.4-1.2,27.5-3,47.8-3.6c20.2-0.6,30.1,6.3,31.5,7.2
		c0.4,0.3,1.2,1.1,2.1,2.1c1-1.2,1.5-2.4,3.9-7.3c2.9-5.9,9.3-24.3,11.4-29.4c2.2-5.1,4.9-7.8,4.9-7.8c7.7-7.6,14.3-3.8,20.2-3.3
		c5.9,0.5,8.8-3.6,10.1-7.6c1.3-4,0.6-7.3-3.6-10.5c-2.6-2-5.9-3.1-8-3.7l0,0c0,0-7.7-2.2-11.9-2.3c-4.2-0.2-6.7-0.8-17,3.9
		c-10.3,4.7-23.5,11.7-25.9,12.6c-2.4,0.9-16.3,7.2-27.3,7.9c-11,0.7-26.8,0.3-34.3,4.6c-7.5,4.3-11.3,8.6-13.2,12.8
		c-1.9,4.1-5.2,12.5-5,19C140.9,107,141.2,108.8,141.3,109z"/>
	<path class="st1" d="M235.3,125.5c-7.1,2.4-18.9,3.6-27.4,4.2c-9.6,0.7-10.9-0.4-11.2-0.6c-0.3-0.2-2-1.6,0.9-3.7
		c2.9-2.1,8.2-3.2,11.7-3.6c3.4-0.3,5.7-0.7,13.7-2.8c1.9-0.5,3.6-1,5-1.6c-2.8-2.7-8.2-3.7-8.2-3.7c-12.9-2.2-23.2-2.7-41.8-0.5
		c-18.6,2.2-32.5,6.2-32.5,6.2s1.8,4.5,4,8.8c2.2,4.3,5.8,9.5,11.4,16.7c3.3,4.2,7.6,8.2,10.6,10.8h88.5
		c-3.2-4.7-24.1-29.6-24.1-29.6S235.6,125.9,235.3,125.5z"/>
	<path class="st1" d="M143.7,137.6c-3.4-4.9-9-15.2-9-15.2c-24.8,7.1-37.4,17.8-37.4,17.8l-21.6,15.5h83.2
		C152.4,149.5,147,142.2,143.7,137.6z"/>
	<path class="st2" d="M638.4,155.7H272.8c-3.3-4.1-12.3-15.1-15.2-18.6c-3-3.5-10.8-13.1-14.1-17c2.8-3.3,4.2-6.8,4.2-6.8
		s5-11.7,7.6-19.4c2.5-7.8,5.9-16.3,5.9-16.3s1.7-7.7,11.6-6.3c9.9,1.4,16.1,3.6,20.3-3.9c3.9-6.9,3.6-14.1,1.5-20.6
		c7.4-0.2,18-1.6,24.8-6.2c11-7.5,13.7-14.4,13.7-14.4l-0.9,0.5c-16.6,8.6-29.5,10.5-40.8,9.3c-11.3-1.2-16.9-4-27.1-8.7
		c-10.3-4.7-6.3-18.3-6.3-18.3C239.2,14,254,32.3,254,32.3c-5.3,0.3-26.1,9.5-35.7,14.3c-9.6,4.8-15.7,6.9-27.2,7.5
		c-11.5,0.6-27.2,3.1-27.2,3.1s-22.3,2.6-33.4,8.7c-4.5,2.5-8.3,5.1-11.2,7.3c-1.9-1.7-5.6-5.1-6.7-6.6c-1.5-2-3.7-3.9-3.1-13.3
		c0.6-9.4,2.9-15.7-2.2-18.5c-5.1-2.8-7.1-3.7-8.8-4.2c0,0,5.3,3.9,4.1,16.3c-1.1,12.3-5.9,18.7,9.8,32.2
		c-25.2,19.1-49.6,73.3-51.1,76.7h-0.1l-3.7,8.9h585.7v0C640.6,162,638.8,159,638.4,155.7z M158.9,69.1c7.5-4.3,23.3-3.9,34.3-4.6
		c11-0.7,24.9-7,27.3-7.9c2.4-0.9,15.5-7.9,25.9-12.6c10.3-4.7,12.8-4.1,17-3.9c4.2,0.2,11.9,2.3,11.9,2.3l0,0
		c2.1,0.6,5.3,1.7,8,3.7c4.2,3.1,4.9,6.5,3.6,10.5c-1.3,4-4.2,8.1-10.1,7.6c-5.9-0.5-12.5-4.3-20.2,3.3c0,0-2.8,2.7-4.9,7.8
		c-2.2,5.1-8.5,23.5-11.4,29.4c-2.5,4.9-2.9,6.2-3.9,7.3c-0.9-1-1.7-1.9-2.1-2.1c-1.4-0.9-11.3-7.8-31.5-7.2
		c-20.2,0.6-39.3,2.4-47.8,3.6c-6.4,0.9-11.3,2.2-13.6,2.9c0-0.2-0.4-2-0.6-8.1c-0.2-6.5,3-14.9,5-19
		C147.6,77.8,151.4,73.4,158.9,69.1z M85,131.1c2-3.5,10.9-17.7,16-25.4c5-7.7,13.3-16.8,16.1-19.6c2.8-2.9,10.5-8.6,17-12.1
		c6.3-3.4,8.1-2.9,8.3-2.8c-0.1,0.1-0.7,0.8-3.8,5.1c-4.1,5.6-6.8,13-8.5,20.4c-1.5,6.6,0.5,14.3,1,15.8c-4.6,1.7-10.2,3.9-14.4,5.6
		c-8.4,3.6-18.1,8.6-28.4,16c-3.8,2.7-6.5,4.9-8.4,6.5C80.3,139.8,83.1,134.4,85,131.1z M75.7,155.7l21.6-15.5
		c0,0,12.7-10.8,37.4-17.8c0,0,5.6,10.3,9,15.2c3.3,4.7,8.7,11.9,15.2,18.1H75.7z M171.4,155.7c-3-2.6-7.3-6.6-10.6-10.8
		c-5.6-7.2-9.1-12.3-11.4-16.7c-2.2-4.3-4-8.8-4-8.8s13.9-4,32.5-6.2c18.6-2.2,28.9-1.7,41.8,0.5c0,0,5.4,1.1,8.2,3.7
		c-1.4,0.6-3,1.1-5,1.6c-8,2.1-10.3,2.5-13.7,2.8c-3.4,0.3-8.8,1.5-11.7,3.6c-2.9,2.1-1.2,3.4-0.9,3.7c0.3,0.2,1.6,1.4,11.2,0.6
		c8.5-0.7,20.3-1.8,27.4-4.2c0.3,0.3,0.5,0.5,0.5,0.5s20.9,24.9,24.1,29.6H171.4z"/>
	<path class="st2" d="M692.9,155.7c-0.5,3.3-2.2,6.2-4.7,8.7v0.2h236.7v-8.9H692.9z"/>
</g>
</svg>
