<svg id="Layer_5" data-name="Layer 5" xmlns="http://www.w3.org/2000/svg" xmlns:xlink="http://www.w3.org/1999/xlink" viewBox="0 0 549.89 171.75"><defs><style>.cls-1{fill:url(#linear-gradient);}.cls-2{fill:url(#linear-gradient-2);}.cls-3{fill:url(#linear-gradient-3);}.cls-4{fill:#4ab96d;}.cls-5{fill:#fff;}</style><linearGradient id="linear-gradient" x1="315.96" y1="50.87" x2="315.96" y2="129.68" gradientUnits="userSpaceOnUse"><stop offset="0" stop-color="#fff"/><stop offset="0.4" stop-color="#eeefef"/><stop offset="0.45" stop-color="#ededee"/><stop offset="0.48" stop-color="#cacccc"/><stop offset="1" stop-color="#f8f8f8"/></linearGradient><linearGradient id="linear-gradient-2" x1="410.19" y1="50.87" x2="410.19" y2="129.68" xlink:href="#linear-gradient"/><linearGradient id="linear-gradient-3" x1="517.63" y1="50.87" x2="517.63" y2="129.68" xlink:href="#linear-gradient"/></defs><title>BinaryCM</title><path class="cls-1" d="M335,87.59q8.8,1.87,13.16,6a18.68,18.68,0,0,1,6.07,14.09,21.1,21.1,0,0,1-4,12.19,22.83,22.83,0,0,1-11,8.45q-7,2.65-21.3,2.65H277.73v-2.34h3.19q5.37,0,7.71-3.35,1.4-2.18,1.4-9.34V61q0-7.94-1.79-10-2.49-2.8-7.32-2.8h-3.19V45.94h36.75A70.5,70.5,0,0,1,331,47.49q9.42,2.26,14.37,8a19.59,19.59,0,0,1,4.94,13.2,18.29,18.29,0,0,1-3.89,11.45Q342.51,85.18,335,87.59ZM302.1,84.17a42.53,42.53,0,0,0,5.26.7q3,0.23,6.58.23,9.11,0,13.74-2A14.82,14.82,0,0,0,334.76,77a17,17,0,0,0,2.45-8.92q0-7.4-6.11-12.69t-17.72-5.3a41.74,41.74,0,0,0-11.29,1.4V84.17Zm0,40.65a62.05,62.05,0,0,0,14.33,1.71q11.37,0,17.33-5.1a16,16,0,0,0,6-12.65A17.83,17.83,0,0,0,328.18,92a37.65,37.65,0,0,0-15-2.65q-3.89,0-6.66.16a35.5,35.5,0,0,0-4.4.47v34.81Z" transform="translate(-22.7 -25.13)"/><path class="cls-2" d="M444.61,44l1.95,29h-1.95q-3.89-13-11.1-18.73a27,27,0,0,0-17.33-5.72,28,28,0,0,0-15.3,4.32q-6.81,4.32-10.75,13.7t-3.93,23.4a49.51,49.51,0,0,0,3.7,20,27.71,27.71,0,0,0,11.13,13A32,32,0,0,0,418,127.38a29.38,29.38,0,0,0,14.64-3.54q6.31-3.54,13.94-14.06l1.87,1.25Q442,122.4,433.51,127.66t-20.21,5.26q-21.1,0-32.7-15.65Q372,105.58,372,89.77a48.9,48.9,0,0,1,5.68-23.36,41.23,41.23,0,0,1,15.69-16.55A42.35,42.35,0,0,1,415.17,44a39.92,39.92,0,0,1,18.14,4.52,9.82,9.82,0,0,0,3.82,1.4,4.18,4.18,0,0,0,3-1.17A9.47,9.47,0,0,0,442.35,44h2.26Z" transform="translate(-22.7 -25.13)"/><path class="cls-3" d="M513.43,131L480.57,59.41v56.84q0,7.79,1.71,9.73,2.26,2.65,7.32,2.65h3V131H463v-2.34h3q5.37,0,7.63-3.27,1.4-1.95,1.4-9.11V60.73q0-5.68-1.25-8.18a7,7,0,0,0-3.23-3q-2.38-1.24-7.59-1.25V45.94H487l30.91,66.58,30.29-66.58H572.3v2.34h-3q-5.45,0-7.71,3.27-1.33,2-1.32,9.19v55.52q0,7.79,1.71,9.73,2.34,2.65,7.32,2.65h3V131H536.24v-2.34h3q5.45,0,7.63-3.27,1.4-1.95,1.4-9.11V59.41L515.45,131h-2Z" transform="translate(-22.7 -25.13)"/><path class="cls-4" d="M207,150.88c-2.86-3.52-10.53-12.94-13-15.95s-9.28-11.24-12.08-14.54a24.06,24.06,0,0,0,3.61-5.84s4.32-10,6.49-16.66,5-14,5-14,1.45-6.63,10-5.39,13.82,3,17.4-3.37c3.32-5.95,3-12.08,1.32-17.63,6.33-.19,15.43-1.34,21.22-5.3,9.43-6.45,11.69-12.33,11.69-12.33l-0.78.43c-14.25,7.37-25.23,9-34.94,7.94s-14.46-3.4-23.25-7.44-5.39-15.68-5.39-15.68c-16,4.45-3.33,20.11-3.33,20.11-4.57.25-22.33,8.12-30.58,12.26s-13.43,5.92-23.28,6.41-23.32,2.62-23.32,2.62S94.67,68.73,85.17,74a78.89,78.89,0,0,0-9.59,6.25,65.38,65.38,0,0,1-5.72-5.62c-1.28-1.7-3.19-3.33-2.66-11.41s2.52-13.47-1.88-15.88-6.1-3.19-7.51-3.61c0,0,4.54,3.33,3.54,14s-5,16,8.36,27.54C48.14,101.59,27.2,148,25.91,150.88H25.85L22.7,158.5H572.31v-7.62H207Zm-97.5-74.14c6.45-3.69,20-3.33,29.38-4s21.33-6,23.39-6.8,13.29-6.73,22.15-10.77,11-3.47,14.57-3.33,10.21,2,10.21,2v0A21.88,21.88,0,0,1,216,57c3.61,2.69,4.22,5.53,3.08,9s-3.58,6.91-8.65,6.49-10.7-3.65-17.33,2.84a21.7,21.7,0,0,0-4.22,6.66c-1.84,4.36-7.26,20.13-9.78,25.16-2.12,4.24-2.5,5.28-3.38,6.29a14.6,14.6,0,0,0-1.83-1.83c-1.17-.78-9.64-6.66-27-6.17s-33.67,2-40.9,3a92.79,92.79,0,0,0-11.66,2.46,49.3,49.3,0,0,1-.49-6.93c-0.18-5.6,2.59-12.76,4.25-16.3S103.07,80.43,109.52,76.74ZM46.19,129.86c1.7-3,9.36-15.17,13.68-21.72a136.11,136.11,0,0,1,13.82-16.8A75.93,75.93,0,0,1,88.25,81c5.36-2.88,6.95-2.46,7.08-2.41-0.08.08-.58,0.69-3.25,4.33-3.54,4.82-5.85,11.16-7.3,17.44-1.3,5.61.43,12.24,0.81,13.57-4,1.48-8.73,3.31-12.3,4.82A124.85,124.85,0,0,0,49,132.45c-3.24,2.32-5.55,4.16-7.18,5.55C42.16,137.31,44.61,132.62,46.19,129.86Zm-7.95,21,18.47-13.29s10.84-9.21,32.07-15.27c0,0,4.78,8.86,7.69,13a108,108,0,0,0,13,15.52H38.24Zm81.94,0a71.56,71.56,0,0,1-9.1-9.25c-4.82-6.13-7.83-10.56-9.75-14.28s-3.44-7.55-3.44-7.55a195.83,195.83,0,0,1,27.82-5.28c15.91-1.88,24.74-1.42,35.79.46,0,0,4.66.91,7.06,3.2a35.43,35.43,0,0,1-4.26,1.37c-6.84,1.77-8.79,2.13-11.73,2.41s-7.55,1.28-10,3-1,2.94-.74,3.15,1.38,1.17,9.6.53c7.31-.57,17.42-1.58,23.51-3.62l0.41,0.47s17.9,21.35,20.62,25.34H120.17Z" transform="translate(-22.7 -25.13)"/><path class="cls-5" d="M22.95,196.87V178.62H38.63a4.72,4.72,0,0,1,3.13.85,3.4,3.4,0,0,1,1,2.69v2.23a2.78,2.78,0,0,1-.81,2.1,4,4,0,0,1-2.34,1A3.91,3.91,0,0,1,42,188.58a3.35,3.35,0,0,1,.86,2.38v2.33A3,3,0,0,1,41.54,196a7.45,7.45,0,0,1-4.05.88H22.95Zm13.91-15.28H27.14v4.35h9.71a2.86,2.86,0,0,0,1.53-.29,1.15,1.15,0,0,0,.42-1V182.9a1.16,1.16,0,0,0-.42-1A2.8,2.8,0,0,0,36.85,181.59Zm0,7.36H27.14v4.65h9.71a2.64,2.64,0,0,0,1.64-.36,1.61,1.61,0,0,0,.42-1.28v-1.38a1.59,1.59,0,0,0-.42-1.27A2.69,2.69,0,0,0,36.85,188.95Z" transform="translate(-22.7 -25.13)"/><path class="cls-5" d="M52,196.87V178.62h4.26v18.26H52Z" transform="translate(-22.7 -25.13)"/><path class="cls-5" d="M66.45,196.87V178.62h2.91l12.88,10.76q0.66,0.54,1.16,1a11.17,11.17,0,0,1,.92,1q-0.1-1.54-.14-2.18t0-1v-9.59H88v18.26H85.07L71.63,185.6l-0.85-.78a9.65,9.65,0,0,1-.68-0.71q0.09,0.85.13,1.6t0,1.3v9.86H66.45Z" transform="translate(-22.7 -25.13)"/><path class="cls-5" d="M94.7,196.87l10.36-18.26h4.1l10.49,18.26h-4.78l-2.2-4h-11.6l-2.13,4H94.7Zm8.19-7.29h8L107,182.16Z" transform="translate(-22.7 -25.13)"/><path class="cls-5" d="M126.43,196.87V178.62h15.65a4.83,4.83,0,0,1,3.16.84,3.38,3.38,0,0,1,1,2.7v4.28a3.38,3.38,0,0,1-1,2.69,4.79,4.79,0,0,1-3.16.85h-2.39l8.45,6.89H142L134.65,190h-4v6.89h-4.19Zm13.77-15.09h-9.58v5.08h9.58a2.58,2.58,0,0,0,1.52-.32,1.36,1.36,0,0,0,.41-1.13v-2.19a1.34,1.34,0,0,0-.41-1.11A2.58,2.58,0,0,0,140.19,181.78Z" transform="translate(-22.7 -25.13)"/><path class="cls-5" d="M160.23,196.87v-8.17l-9.51-10.09h5.68l6.29,7,6.3-7h5l-9.47,10v8.27h-4.29Z" transform="translate(-22.7 -25.13)"/><path class="cls-5" d="M209.82,181.88H198.34v11.55h11.48v-3.92l4.26,0.88v2.16q0,2.5-.94,3.41t-3.59.91H198.61q-2.67,0-3.6-.91t-0.94-3.41v-9.62q0-2.49.94-3.4t3.6-.92h10.93q2.65,0,3.59.92t0.94,3.4v1.73l-4.26.67v-3.45Z" transform="translate(-22.7 -25.13)"/><path class="cls-5" d="M219.62,196.87L230,178.62h4.1l10.49,18.26H239.8l-2.2-4H226l-2.13,4h-4.24Zm8.19-7.29h8l-3.95-7.43Z" transform="translate(-22.7 -25.13)"/><path class="cls-5" d="M251.35,196.87V178.62H267a4.83,4.83,0,0,1,3.16.84,3.38,3.38,0,0,1,1,2.7v4.08a3.35,3.35,0,0,1-1,2.69,4.82,4.82,0,0,1-3.16.84H255.54v7.12h-4.19Zm13.77-15.09h-9.58v4.84h9.58a2.58,2.58,0,0,0,1.52-.32,1.36,1.36,0,0,0,.41-1.13v-2a1.34,1.34,0,0,0-.41-1.11A2.58,2.58,0,0,0,265.12,181.78Z" transform="translate(-22.7 -25.13)"/><path class="cls-5" d="M278.59,196.87V178.62h4.26v18.26h-4.26Z" transform="translate(-22.7 -25.13)"/><path class="cls-5" d="M301.61,181.88v15h-4.26v-15H289v-3.26H310v3.26h-8.43Z" transform="translate(-22.7 -25.13)"/><path class="cls-5" d="M310.24,196.87l10.36-18.26h4.1l10.49,18.26h-4.78l-2.2-4h-11.6l-2.13,4h-4.24Zm8.19-7.29h8l-3.95-7.43Z" transform="translate(-22.7 -25.13)"/><path class="cls-5" d="M342,196.87V178.62h4.26v14.82H360v3.44H342Z" transform="translate(-22.7 -25.13)"/><path class="cls-5" d="M381.66,196.87V178.62h3.45l8.62,11,8.43-11h3.41v18.26h-3.95V185.6q0-.33,0-0.83t0.11-1.12q-0.35.71-.61,1.17t-0.47.75l-6.87,9.12H393l-6.89-9.15a11.3,11.3,0,0,1-.65-1,6.6,6.6,0,0,1-.44-0.89q0.05,0.57.08,1t0,0.9v11.28h-3.45Z" transform="translate(-22.7 -25.13)"/><path class="cls-5" d="M411.92,196.87l10.36-18.26h4.1l10.49,18.26h-4.78l-2.2-4h-11.6l-2.13,4h-4.24Zm8.19-7.29h8l-3.95-7.43Z" transform="translate(-22.7 -25.13)"/><path class="cls-5" d="M443.65,196.87V178.62H459.3a4.83,4.83,0,0,1,3.16.84,3.38,3.38,0,0,1,1,2.7v4.28a3.38,3.38,0,0,1-1,2.69,4.79,4.79,0,0,1-3.16.85h-2.39l8.45,6.89h-6.11L451.87,190h-4v6.89h-4.19Zm13.77-15.09h-9.58v5.08h9.58a2.58,2.58,0,0,0,1.52-.32,1.36,1.36,0,0,0,.41-1.13v-2.19a1.34,1.34,0,0,0-.41-1.11A2.58,2.58,0,0,0,457.41,181.78Z" transform="translate(-22.7 -25.13)"/><path class="cls-5" d="M473,196.87V178.62h4.29v7.62l10.15-7.62h6.16l-12.12,8.6,13.61,9.65h-6.84l-11-8v8H473Z" transform="translate(-22.7 -25.13)"/><path class="cls-5" d="M502,196.87V178.62h18.74v3.11H506.27v4.08h8.45v3.11h-8.45v4.52h14.65v3.44H502Z" transform="translate(-22.7 -25.13)"/><path class="cls-5" d="M538.19,181.88v15h-4.26v-15h-8.4v-3.26h21.09v3.26h-8.43Z" transform="translate(-22.7 -25.13)"/><path class="cls-5" d="M568.58,181.81h-12v3.92H568q2.68,0,3.63.92t0.94,3.4v2.5q0,2.49-.94,3.4t-3.63.92H556.71q-2.68,0-3.63-.92t-0.94-3.4v-0.5l3.76-.78v2.16h12.94v-4.16H557.42q-2.67,0-3.6-.92t-0.94-3.4v-2q0-2.49.94-3.4t3.6-.92h10.39a5.4,5.4,0,0,1,3.56.88,4.08,4.08,0,0,1,1,3.13V183l-3.76.88v-2.07Z" transform="translate(-22.7 -25.13)"/></svg>